{"title":"Prometheus 2012 NL","uid":8214680,"size":382492277,"categoryP":"video","categoryS":"handheld","magnet":"?xt=urn:btih:c3a0bcefa040a4d4088c5d770e930ee92625c5f2&amp;dn=Prometheus+2012+NL&amp;tr=udp%3A%2F%2Ftracker.openbittorrent.com%3A80&amp;tr=udp%3A%2F%2Fopen.demonii.com%3A1337&amp;tr=udp%3A%2F%2Ftracker.coppersurfer.tk%3A6969&amp;tr=udp%3A%2F%2Fexodus.desync.com%3A6969","seeders":0,"leechers":0,"uploader":"facemovies","files":-1,"time":1362318636,"description":"Format                           : MPEG-4\nFormat profile                   : Base Media / Version 2\nCodec ID                         : mp42\nFile size                        : 365 MiB\nDuration                         : 1h 58mn\nOverall bit rate                 : 430 Kbps\nEncoded date                     : UTC 2013-02-28 04:34:39\nTagged date                      : UTC 2013-02-28 04:34:39\n\nVideo\nID                               : 1\nFormat                           : AVC\nFormat/Info                      : Advanced Video Codec\nFormat profile                   : &lt;a class=&quot;__cf_email__&quot; href=&quot;/cdn-cgi/l/email-protection&quot; data-cfemail=&quot;a3eec2cacde3ef918d92&quot;&gt;[email&amp;#160;protected]&lt;/a&gt;&lt;script cf-hash='f9e31' type=&quot;text/javascript&quot;&gt;\n/* &lt;![CDATA[ */!function(){try{var t=&quot;currentScript&quot;in document?document.currentScript:function(){for(var t=document.getElementsByTagName(&quot;script&quot;),e=t.length;e--;)if(t[e].getAttribute(&quot;cf-hash&quot;))return t[e]}();if(t&amp;&amp;t.previousSibling){var e,r,n,i,c=t.previousSibling,a=c.getAttribute(&quot;data-cfemail&quot;);if(a){for(e=&quot;&quot;,r=parseInt(a.substr(0,2),16),n=2;a.length-n;n+=2)i=parseInt(a.substr(n,2),16)^r,e+=String.fromCharCode(i);e=document.createTextNode(e),c.parentNode.replaceChild(e,c)}}}catch(u){}}();/* ]]&gt; */&lt;/script&gt;\nFormat settings, CABAC           : Yes\nFormat settings, ReFrames        : 3 frames\nCodec ID                         : avc1\nCodec ID/Info                    : Advanced Video Coding\nDuration                         : 1h 58mn\nBit rate mode                    : Variable\nBit rate                         : 301 Kbps\nWidth                            : 688 pixels\nHeight                           : 288 pixels\nDisplay aspect ratio             : 2.35:1\nFrame rate mode                  : Constant\nFrame rate                       : 25.000 fps\nStandard                         : PAL\nResolution                       : 8 bits\nColorimetry                      : 4:2:0\nScan type                        : Progressive\nBits/(Pixel*Frame)               : 0.061\nStream size                      : 256 MiB (70%)\nLanguage                         : English\nEncoded date                     : UTC 2013-02-28 04:34:43\nTagged date                      : UTC 2013-02-28 04:34:43\n\nAudio\nID                               : 2\nFormat                           : AAC\nFormat/Info                      : Advanced Audio Codec\nFormat version                   : Version 4\nFormat profile                   : LC\nFormat settings, SBR             : No\nCodec ID                         : 40\nDuration                         : 1h 58mn\nBit rate mode                    : Variable\nBit rate                         : 126 Kbps\nMaximum bit rate                 : 234 Kbps\nChannel(s)                       : 2 channels\nChannel positions                : Front: L R\nSampling rate                    : 44.1 KHz\nStream size                      : 107 MiB (29%)\nLanguage                         : English","torrent":{"xt":"urn:btih:c3a0bcefa040a4d4088c5d770e930ee92625c5f2","amp;dn":"Prometheus+2012+NL","amp;tr":["udp%3A%2F%2Ftracker.openbittorrent.com%3A80","udp%3A%2F%2Fopen.demonii.com%3A1337","udp%3A%2F%2Ftracker.coppersurfer.tk%3A6969","udp%3A%2F%2Fexodus.desync.com%3A6969"],"infoHash":"c3a0bcefa040a4d4088c5d770e930ee92625c5f2","infoHashBuffer":{"type":"Buffer","data":[195,160,188,239,160,64,164,212,8,140,93,119,14,147,14,233,38,37,197,242]},"announce":[],"urlList":[]}}